<svg width="28" height="32" viewBox="0 0 28 32" fill="none" xmlns="http://www.w3.org/2000/svg">
<path fill-rule="evenodd" clip-rule="evenodd" d="M7.6015 19.6577L13.8135 16.0204L20.0664 19.6577L13.8135 23.2133L7.6015 19.6577Z" fill="#6D6F71"/>
<path fill-rule="evenodd" clip-rule="evenodd" d="M7.6015 12.4649L13.8135 8.82759V16.0204L7.6015 19.6577V12.4649Z" fill="#919396"/>
<path fill-rule="evenodd" clip-rule="evenodd" d="M13.8136 8.86846L20.0664 12.4649V19.6577L13.8136 16.0613V8.86846Z" fill="#DBDBDC"/>
<path fill-rule="evenodd" clip-rule="evenodd" d="M7.6015 28.4036L13.8135 24.8072L20.0664 28.4036L13.8135 32L7.6015 28.4036Z" fill="#6D6F71"/>
<path fill-rule="evenodd" clip-rule="evenodd" d="M7.6015 21.2107L13.8135 17.6143V24.8072L7.6015 28.4036V21.2107Z" fill="#919396"/>
<path fill-rule="evenodd" clip-rule="evenodd" d="M13.8136 17.6143L20.0664 21.2107V28.4036L13.8136 24.8072V17.6143Z" fill="#DBDBDC"/>
<path fill-rule="evenodd" clip-rule="evenodd" d="M0 15.2031L6.21201 11.5658L12.4649 15.2031L6.21201 18.7586L0 15.2031Z" fill="#6D6F71"/>
<path fill-rule="evenodd" clip-rule="evenodd" d="M0 7.96935L6.21201 4.37292V11.5658L0 15.2031V7.96935Z" fill="#919396"/>
<path fill-rule="evenodd" clip-rule="evenodd" d="M6.25287 4.37292L12.4649 7.96935V15.2031L6.25287 11.5658V4.37292Z" fill="#DBDBDC"/>
<path fill-rule="evenodd" clip-rule="evenodd" d="M0 24.0307L6.21201 20.4342L12.4649 24.0307L6.21201 27.6271L0 24.0307Z" fill="#6D6F71"/>
<path fill-rule="evenodd" clip-rule="evenodd" d="M0 16.8378L6.21201 13.2414V20.4342L0 24.0306V16.8378Z" fill="#919396"/>
<path fill-rule="evenodd" clip-rule="evenodd" d="M6.21198 13.2414L12.4648 16.8378V24.0306L6.21198 20.4342V13.2414Z" fill="#DBDBDC"/>
<path fill-rule="evenodd" clip-rule="evenodd" d="M15.1622 15.2031L21.4151 11.5658L27.6271 15.2031L21.4151 18.7586L15.1622 15.2031Z" fill="#6D6F71"/>
<path fill-rule="evenodd" clip-rule="evenodd" d="M15.1622 7.96935L21.4151 4.37292V11.5658L15.1622 15.2031V7.96935Z" fill="#919396"/>
<path fill-rule="evenodd" clip-rule="evenodd" d="M21.4151 4.37292L27.6271 7.96935V15.2031L21.4151 11.5658V4.37292Z" fill="#DBDBDC"/>
<path fill-rule="evenodd" clip-rule="evenodd" d="M15.1622 24.0307L21.4151 20.3934L27.6271 24.0307L21.4151 27.5862L15.1622 24.0307Z" fill="#6D6F71"/>
<path fill-rule="evenodd" clip-rule="evenodd" d="M15.1622 16.8378L21.4151 13.2414V20.4342L15.1622 24.0306V16.8378Z" fill="#919396"/>
<path fill-rule="evenodd" clip-rule="evenodd" d="M21.4151 13.2414L27.6271 16.8378V24.0306L21.4151 20.4342V13.2414Z" fill="#DBDBDC"/>
<path fill-rule="evenodd" clip-rule="evenodd" d="M13.8136 0L20.0664 3.59643V5.1903L13.8136 1.553V0Z" fill="#EA2227"/>
<path fill-rule="evenodd" clip-rule="evenodd" d="M7.6015 5.1903L13.8135 1.55301L20.0664 5.1903L13.8135 8.74586L7.6015 5.1903Z" fill="#801417"/>
<path fill-rule="evenodd" clip-rule="evenodd" d="M7.6015 3.63729L13.8135 0.040863V1.553L7.6015 5.19029V3.63729Z" fill="#534FA4"/>
<path fill-rule="evenodd" clip-rule="evenodd" d="M13.8136 0L20.0664 3.59643V5.1903L13.8136 1.553V0Z" fill="#CE96FB"/>
<path fill-rule="evenodd" clip-rule="evenodd" d="M7.6015 5.1903L13.8135 1.55301L20.0664 5.1903L13.8135 8.74586L7.6015 5.1903Z" fill="#36009C"/>
<path fill-rule="evenodd" clip-rule="evenodd" d="M7.6015 6.45722L13.8135 2.86079V4.4138L7.6015 8.01022V6.45722Z" fill="#534FA4"/>
<path fill-rule="evenodd" clip-rule="evenodd" d="M13.8136 2.86079L20.0664 6.45722V8.01022L13.8136 4.4138V2.86079Z" fill="#CE96FB"/>
<path fill-rule="evenodd" clip-rule="evenodd" d="M7.6015 8.01023L13.8135 4.4138L20.0664 8.01023L13.8135 11.6067L7.6015 8.01023Z" fill="#36009C"/>
<path fill-rule="evenodd" clip-rule="evenodd" d="M7.6015 9.27713L13.8135 5.68071V7.23371L7.6015 10.8301V9.27713Z" fill="#534FA4"/>
<path fill-rule="evenodd" clip-rule="evenodd" d="M13.8136 5.68071L20.0664 9.27713V10.8301L13.8136 7.23371V5.68071Z" fill="#CE96FB"/>
<path fill-rule="evenodd" clip-rule="evenodd" d="M7.6015 10.8301L13.8135 7.23372L20.0664 10.8301L13.8135 14.4266L7.6015 10.8301Z" fill="#36009C"/>
</svg>
