<svg width="250" height="250" viewBox="0 0 250 250" fill="none" xmlns="http://www.w3.org/2000/svg">
<path d="M63.802 33.8543C61.3847 33.8543 59.0664 34.8146 57.3571 36.5239C55.6477 38.2332 54.6875 40.5516 54.6875 42.9689V216.146H72.9166V188.802C72.9166 185.694 74.1513 182.714 76.349 180.516C78.5467 178.318 81.5274 177.084 84.6354 177.084H165.365C168.473 177.084 171.453 178.318 173.651 180.516C175.849 182.714 177.083 185.694 177.083 188.802V216.146H195.312V121.094C195.312 118.677 194.352 116.358 192.643 114.649C190.934 112.94 188.615 111.979 186.198 111.979H160.156C156.562 111.979 153.646 109.063 153.646 105.469V42.9689C153.646 41.772 153.41 40.5867 152.952 39.4809C152.494 38.3751 151.823 37.3703 150.976 36.5239C150.13 35.6776 149.125 35.0062 148.019 34.5481C146.913 34.0901 145.728 33.8543 144.531 33.8543H63.802ZM48.177 229.167C44.5833 229.167 41.6666 226.25 41.6666 222.656V42.9689C41.6666 37.0982 43.9987 31.468 48.1499 27.3168C52.3011 23.1656 57.9314 20.8335 63.802 20.8335H144.531C150.402 20.8335 156.032 23.1656 160.183 27.3168C164.335 31.468 166.667 37.0982 166.667 42.9689V98.9585H186.198C192.069 98.9585 197.699 101.291 201.85 105.442C206.001 109.593 208.333 115.223 208.333 121.094V222.656C208.333 226.25 205.417 229.167 201.823 229.167H48.177ZM85.9375 216.146H118.49V190.104H85.9375V216.146ZM131.51 216.146H164.062V190.104H131.51V216.146ZM93.75 72.9168C93.75 75.6795 92.6525 78.329 90.699 80.2825C88.7455 82.236 86.096 83.3335 83.3333 83.3335C80.5706 83.3335 77.9211 82.236 75.9676 80.2825C74.0141 78.329 72.9166 75.6795 72.9166 72.9168C72.9166 70.1542 74.0141 67.5046 75.9676 65.5511C77.9211 63.5976 80.5706 62.5002 83.3333 62.5002C86.096 62.5002 88.7455 63.5976 90.699 65.5511C92.6525 67.5046 93.75 70.1542 93.75 72.9168ZM83.3333 119.792C86.096 119.792 88.7455 118.694 90.699 116.741C92.6525 114.787 93.75 112.138 93.75 109.375C93.75 106.612 92.6525 103.963 90.699 102.009C88.7455 100.056 86.096 98.9585 83.3333 98.9585C80.5706 98.9585 77.9211 100.056 75.9676 102.009C74.0141 103.963 72.9166 106.612 72.9166 109.375C72.9166 112.138 74.0141 114.787 75.9676 116.741C77.9211 118.694 80.5706 119.792 83.3333 119.792ZM93.75 145.833C93.75 148.596 92.6525 151.246 90.699 153.199C88.7455 155.153 86.096 156.25 83.3333 156.25C80.5706 156.25 77.9211 155.153 75.9676 153.199C74.0141 151.246 72.9166 148.596 72.9166 145.833C72.9166 143.071 74.0141 140.421 75.9676 138.468C77.9211 136.514 80.5706 135.417 83.3333 135.417C86.096 135.417 88.7455 136.514 90.699 138.468C92.6525 140.421 93.75 143.071 93.75 145.833ZM125 83.3335C127.763 83.3335 130.412 82.236 132.366 80.2825C134.319 78.329 135.417 75.6795 135.417 72.9168C135.417 70.1542 134.319 67.5046 132.366 65.5511C130.412 63.5976 127.763 62.5002 125 62.5002C122.237 62.5002 119.588 63.5976 117.634 65.5511C115.681 67.5046 114.583 70.1542 114.583 72.9168C114.583 75.6795 115.681 78.329 117.634 80.2825C119.588 82.236 122.237 83.3335 125 83.3335ZM135.417 109.375C135.417 112.138 134.319 114.787 132.366 116.741C130.412 118.694 127.763 119.792 125 119.792C122.237 119.792 119.588 118.694 117.634 116.741C115.681 114.787 114.583 112.138 114.583 109.375C114.583 106.612 115.681 103.963 117.634 102.009C119.588 100.056 122.237 98.9585 125 98.9585C127.763 98.9585 130.412 100.056 132.366 102.009C134.319 103.963 135.417 106.612 135.417 109.375ZM125 156.25C127.763 156.25 130.412 155.153 132.366 153.199C134.319 151.246 135.417 148.596 135.417 145.833C135.417 143.071 134.319 140.421 132.366 138.468C130.412 136.514 127.763 135.417 125 135.417C122.237 135.417 119.588 136.514 117.634 138.468C115.681 140.421 114.583 143.071 114.583 145.833C114.583 148.596 115.681 151.246 117.634 153.199C119.588 155.153 122.237 156.25 125 156.25ZM177.083 145.833C177.083 148.596 175.986 151.246 174.032 153.199C172.079 155.153 169.429 156.25 166.667 156.25C163.904 156.25 161.254 155.153 159.301 153.199C157.347 151.246 156.25 148.596 156.25 145.833C156.25 143.071 157.347 140.421 159.301 138.468C161.254 136.514 163.904 135.417 166.667 135.417C169.429 135.417 172.079 136.514 174.032 138.468C175.986 140.421 177.083 143.071 177.083 145.833Z" fill="white"/>
</svg>
