<svg width="280" height="280" viewBox="0 0 280 280" fill="none" xmlns="http://www.w3.org/2000/svg">
<path d="M139.962 93.3135C114.255 93.3135 93.2767 114.293 93.2767 140C93.2767 165.707 114.255 186.687 139.962 186.687C165.669 186.687 186.648 165.707 186.648 140C186.648 114.293 165.669 93.3135 139.962 93.3135ZM279.984 140C279.984 120.667 280.16 101.509 279.074 82.211C277.988 59.7958 272.875 39.9024 256.484 23.5113C240.058 7.0852 220.2 2.00677 197.785 0.921032C178.453 -0.164701 159.295 0.0104176 139.997 0.0104176C120.665 0.0104176 101.507 -0.164701 82.2094 0.921032C59.7947 2.00677 39.9016 7.12022 23.5109 23.5113C7.08507 39.9374 2.00673 59.7958 0.921015 82.211C-0.164698 101.544 0.0104174 120.702 0.0104174 140C0.0104174 159.298 -0.164698 178.491 0.921015 197.789C2.00673 220.204 7.12009 240.098 23.5109 256.489C39.9367 272.915 59.7947 277.993 82.2094 279.079C101.542 280.165 120.7 279.99 139.997 279.99C159.33 279.99 178.488 280.165 197.785 279.079C220.2 277.993 240.093 272.88 256.484 256.489C272.91 240.063 277.988 220.204 279.074 197.789C280.195 178.491 279.984 159.333 279.984 140ZM139.962 211.834C100.211 211.834 68.1302 179.752 68.1302 140C68.1302 100.248 100.211 68.1665 139.962 68.1665C179.713 68.1665 211.795 100.248 211.795 140C211.795 179.752 179.713 211.834 139.962 211.834ZM214.737 82.0008C205.455 82.0008 197.96 74.5058 197.96 65.2245C197.96 55.9432 205.455 48.4481 214.737 48.4481C224.018 48.4481 231.513 55.9432 231.513 65.2245C231.515 67.4284 231.083 69.6111 230.241 71.6478C229.399 73.6844 228.163 75.5349 226.605 77.0933C225.047 78.6517 223.196 79.8873 221.16 80.7294C219.123 81.5715 216.94 82.0036 214.737 82.0008Z" fill="url(#paint0_linear_53_13)"/>
<defs>
<linearGradient id="paint0_linear_53_13" x1="0" y1="140" x2="280" y2="140" gradientUnits="userSpaceOnUse">
<stop stop-color="#CE96FB"/>
<stop offset="0.52" stop-color="#9765E0"/>
<stop offset="0.96" stop-color="#4F3576"/>
</linearGradient>
</defs>
</svg>
