<svg width="280" height="280" viewBox="0 0 280 280" fill="none" xmlns="http://www.w3.org/2000/svg">
<path d="M216.146 0H63.8544C46.9191 0 30.6775 6.72749 18.7025 18.7025C6.72749 30.6775 0 46.9191 0 63.8544V216.146C0 233.081 6.72749 249.322 18.7025 261.297C30.6775 273.273 46.9191 280 63.8544 280H216.146C233.081 280 249.322 273.273 261.297 261.297C273.273 249.322 280 233.081 280 216.146V63.8544C280 46.9191 273.273 30.6775 261.297 18.7025C249.322 6.72749 233.081 0 216.146 0ZM94.6687 226.039C94.7137 226.821 94.5985 227.603 94.3301 228.338C94.0617 229.074 93.6457 229.747 93.1078 230.316C92.5699 230.884 91.9214 231.337 91.2022 231.646C90.4829 231.955 89.708 232.114 88.9251 232.113H63.3662C61.8248 232.075 60.3597 231.434 59.2857 230.328C58.2118 229.222 57.6146 227.739 57.6226 226.197V119.897C57.6015 119.13 57.7344 118.366 58.0136 117.651C58.2928 116.936 58.7125 116.284 59.2479 115.734C59.7834 115.183 60.4237 114.746 61.1311 114.448C61.8384 114.149 62.5984 113.996 63.3662 113.996H88.9251C89.6929 113.996 90.4529 114.149 91.1602 114.448C91.8676 114.746 92.5079 115.183 93.0433 115.734C93.5788 116.284 93.9985 116.936 94.2777 117.651C94.5569 118.366 94.6898 119.13 94.6687 119.897V226.039ZM75.6718 91.639C72.9046 91.6182 70.1686 91.0527 67.62 89.9745C65.0714 88.8964 62.7601 87.3269 60.8181 85.3555C58.876 83.3841 57.3413 81.0496 56.3015 78.4851C55.2617 75.9206 54.7372 73.1764 54.7579 70.4092C54.7787 67.642 55.3443 64.906 56.4224 62.3574C57.5005 59.8088 59.0701 57.4975 61.0414 55.5555C63.0128 53.6135 65.3474 52.0787 67.9118 51.0389C70.4763 49.9991 73.2205 49.4746 75.9877 49.4954C81.4803 49.674 86.6855 51.992 90.4929 55.9549C94.3003 59.9177 96.4082 65.2116 96.367 70.7069C96.3258 76.2022 94.1387 81.4638 90.2723 85.3691C86.4059 89.2744 81.1664 91.514 75.6718 91.6103M230.993 225.867C230.986 227.318 230.416 228.709 229.404 229.748C228.392 230.788 227.015 231.393 225.565 231.438H198.585C197.132 231.393 195.754 230.786 194.741 229.743C193.728 228.701 193.16 227.306 193.157 225.852V176.687C193.157 169.35 195.397 144.767 173.686 144.767C156.757 144.767 153.411 161.998 152.765 169.666V226.972C152.766 228.428 152.2 229.827 151.186 230.872C150.173 231.918 148.793 232.528 147.337 232.572H121.161C119.678 232.569 118.258 231.977 117.211 230.927C116.163 229.877 115.575 228.455 115.575 226.972V119.381C115.62 117.925 116.23 116.545 117.275 115.532C118.321 114.518 119.72 113.952 121.175 113.953H147.337C148.793 113.952 150.192 114.518 151.238 115.532C152.283 116.545 152.893 117.925 152.937 119.381V128.642C156.757 123.051 162.031 118.609 168.19 115.795C174.35 112.981 181.16 111.902 187.887 112.675C231.467 112.675 231.309 153.383 231.309 176.529L230.993 225.867Z" fill="url(#paint0_linear_53_12)"/>
<defs>
<linearGradient id="paint0_linear_53_12" x1="0" y1="140" x2="280" y2="140" gradientUnits="userSpaceOnUse">
<stop stop-color="#CE96FB"/>
<stop offset="0.52" stop-color="#9765E0"/>
<stop offset="0.96" stop-color="#4F3576"/>
</linearGradient>
</defs>
</svg>
