<svg width="55" height="28" viewBox="0 0 55 28" fill="none" xmlns="http://www.w3.org/2000/svg">
<path fill-rule="evenodd" clip-rule="evenodd" d="M6.60425 16.7548L12.0013 13.6546L17.4338 16.7548L12.0013 19.7852L6.60425 16.7548Z" fill="#6D6F71"/>
<path fill-rule="evenodd" clip-rule="evenodd" d="M6.60425 10.6241L12.0013 7.52396V13.6546L6.60425 16.7548V10.6241Z" fill="#919396"/>
<path fill-rule="evenodd" clip-rule="evenodd" d="M12.0013 7.5588L17.4338 10.6241V16.7548L12.0013 13.6894V7.5588Z" fill="#DBDBDC"/>
<path fill-rule="evenodd" clip-rule="evenodd" d="M6.60425 24.2091L12.0013 21.1437L17.4338 24.2091L12.0013 27.2744L6.60425 24.2091Z" fill="#6D6F71"/>
<path fill-rule="evenodd" clip-rule="evenodd" d="M6.60425 18.0784L12.0013 15.0131V21.1437L6.60425 24.2091V18.0784Z" fill="#919396"/>
<path fill-rule="evenodd" clip-rule="evenodd" d="M12.0013 15.0131L17.4338 18.0784V24.2091L12.0013 21.1437V15.0131Z" fill="#DBDBDC"/>
<path fill-rule="evenodd" clip-rule="evenodd" d="M0 12.9579L5.39703 9.85779L10.8296 12.9579L5.39703 15.9884L0 12.9579Z" fill="#6D6F71"/>
<path fill-rule="evenodd" clip-rule="evenodd" d="M0 6.79247L5.39703 3.72715V9.85779L0 12.9579V6.79247Z" fill="#919396"/>
<path fill-rule="evenodd" clip-rule="evenodd" d="M5.43256 3.72715L10.8296 6.79247V12.9579L5.43256 9.85779V3.72715Z" fill="#DBDBDC"/>
<path fill-rule="evenodd" clip-rule="evenodd" d="M0 20.4819L5.39703 17.4166L10.8296 20.4819L5.39703 23.5472L0 20.4819Z" fill="#6D6F71"/>
<path fill-rule="evenodd" clip-rule="evenodd" d="M0 14.3513L5.39703 11.2859V17.4166L0 20.4819V14.3513Z" fill="#919396"/>
<path fill-rule="evenodd" clip-rule="evenodd" d="M5.39703 11.2859L10.8296 14.3513V20.4819L5.39703 17.4166V11.2859Z" fill="#DBDBDC"/>
<path fill-rule="evenodd" clip-rule="evenodd" d="M13.173 12.9579L18.6056 9.85779L24.0026 12.9579L18.6056 15.9884L13.173 12.9579Z" fill="#6D6F71"/>
<path fill-rule="evenodd" clip-rule="evenodd" d="M13.173 6.79247L18.6056 3.72715V9.85779L13.173 12.9579V6.79247Z" fill="#919396"/>
<path fill-rule="evenodd" clip-rule="evenodd" d="M18.6055 3.72715L24.0026 6.79247V12.9579L18.6055 9.85779V3.72715Z" fill="#DBDBDC"/>
<path fill-rule="evenodd" clip-rule="evenodd" d="M13.173 20.4819L18.6056 17.3817L24.0026 20.4819L18.6056 23.5124L13.173 20.4819Z" fill="#6D6F71"/>
<path fill-rule="evenodd" clip-rule="evenodd" d="M13.173 14.3513L18.6056 11.2859V17.4166L13.173 20.4819V14.3513Z" fill="#919396"/>
<path fill-rule="evenodd" clip-rule="evenodd" d="M18.6055 11.2859L24.0026 14.3513V20.4819L18.6055 17.4166V11.2859Z" fill="#DBDBDC"/>
<path fill-rule="evenodd" clip-rule="evenodd" d="M12.0013 0L17.4338 3.06532V4.42381L12.0013 1.32366V0Z" fill="#EA2227"/>
<path fill-rule="evenodd" clip-rule="evenodd" d="M6.60425 4.42381L12.0013 1.32366L17.4338 4.42381L12.0013 7.4543L6.60425 4.42381Z" fill="#801417"/>
<path fill-rule="evenodd" clip-rule="evenodd" d="M6.60425 3.10015L12.0013 0.0348339V1.32366L6.60425 4.42381V3.10015Z" fill="#534FA4"/>
<path fill-rule="evenodd" clip-rule="evenodd" d="M12.0013 0L17.4338 3.06532V4.42381L12.0013 1.32366V0Z" fill="#CE96FB"/>
<path fill-rule="evenodd" clip-rule="evenodd" d="M6.60425 4.42381L12.0013 1.32366L17.4338 4.42381L12.0013 7.4543L6.60425 4.42381Z" fill="#36009C"/>
<path fill-rule="evenodd" clip-rule="evenodd" d="M6.60425 5.50364L12.0013 2.43832V3.76198L6.60425 6.8273V5.50364Z" fill="#534FA4"/>
<path fill-rule="evenodd" clip-rule="evenodd" d="M12.0013 2.43832L17.4338 5.50364V6.8273L12.0013 3.76198V2.43832Z" fill="#CE96FB"/>
<path fill-rule="evenodd" clip-rule="evenodd" d="M6.60425 6.8273L12.0013 3.76198L17.4338 6.8273L12.0013 9.89262L6.60425 6.8273Z" fill="#36009C"/>
<path fill-rule="evenodd" clip-rule="evenodd" d="M6.60425 7.90713L12.0013 4.84181V6.16547L6.60425 9.23079V7.90713Z" fill="#534FA4"/>
<path fill-rule="evenodd" clip-rule="evenodd" d="M12.0013 4.84181L17.4338 7.90713V9.23079L12.0013 6.16547V4.84181Z" fill="#CE96FB"/>
<path fill-rule="evenodd" clip-rule="evenodd" d="M6.60425 9.23079L12.0013 6.16547L17.4338 9.23079L12.0013 12.2961L6.60425 9.23079Z" fill="#36009C"/>
<path fill-rule="evenodd" clip-rule="evenodd" d="M34.3432 15L34.5551 14.1034L35.4732 10H38.7571V17.931H36.4972V14.069V12.7241L35.2966 18H33.4605L32.2246 12.7241V18H30V10.069H33.2839L34.202 14.1724L34.3432 15ZM39.5692 17.9655V10.0345H45.1836C45.7839 10.0345 46.2782 10.2414 46.596 10.6552C46.9138 11.0345 47.0551 11.5517 47.0551 12.2069V15.7931C47.0551 16.4828 46.8785 17 46.596 17.4138C46.2782 17.7931 45.7839 18 45.1483 18H39.5692V17.9655ZM41.935 15.7586H44.6186V12.1724H41.935V15.7586ZM47.8319 17.9655V15.7241H52.7401V14.931H50.1271C49.209 14.931 48.6088 14.8276 48.3263 14.5862C48.0438 14.3793 47.9025 14 47.9025 13.4828V11.5862C47.9025 11.1034 48.0438 10.7241 48.3263 10.4828C48.5028 10.3448 48.75 10.2069 49.0325 10.1379C49.315 10.069 49.7034 10.0345 50.1271 10.0345H54.5763V12.1724H50.1977V13.0345H53.3404C53.8701 13.0345 54.2938 13.1724 54.541 13.4138C54.8588 13.6552 55 14.069 55 14.6207V16.5517C55 17.0345 54.8234 17.4138 54.5057 17.6552C54.1879 17.8966 53.7994 18 53.3404 18H47.8319V17.9655Z" fill="#F4F4F3"/>
</svg>
