<svg width="250" height="250" viewBox="0 0 250 250" fill="none" xmlns="http://www.w3.org/2000/svg">
<path d="M220.703 182.373H29.2969C28.2227 182.373 27.3438 183.252 27.3438 184.326V197.998C27.3438 199.072 28.2227 199.951 29.2969 199.951H220.703C221.777 199.951 222.656 199.072 222.656 197.998V184.326C222.656 183.252 221.777 182.373 220.703 182.373ZM40.4541 151.807L50.1465 161.45C50.9033 162.207 52.1484 162.207 52.9053 161.45L110.205 104.346L134.033 128.101C135.501 129.555 137.484 130.371 139.551 130.371C141.617 130.371 143.6 129.555 145.068 128.101L209.57 63.8428C210.327 63.0859 210.327 61.8408 209.57 61.084L199.878 51.416C199.511 51.0525 199.015 50.8486 198.499 50.8486C197.982 50.8486 197.486 51.0525 197.119 51.416L139.575 108.789L115.723 85.0342C114.255 83.5797 112.272 82.7636 110.205 82.7636C108.139 82.7636 106.156 83.5797 104.687 85.0342L40.4541 149.048C40.2715 149.228 40.1265 149.443 40.0275 149.68C39.9286 149.917 39.8776 150.171 39.8776 150.427C39.8776 150.684 39.9286 150.938 40.0275 151.175C40.1265 151.412 40.2715 151.626 40.4541 151.807Z" fill="white"/>
</svg>
