<svg width="250" height="250" viewBox="0 0 250 250" fill="none" xmlns="http://www.w3.org/2000/svg">
<path d="M218.75 127.292C218.75 70.1042 174.375 31.25 125 31.25C76.1459 31.25 31.25 69.2708 31.25 127.917C25 131.458 20.8334 138.125 20.8334 145.833V166.667C20.8334 178.125 30.2084 187.5 41.6667 187.5H52.0834V123.958C52.0834 83.6458 84.6875 51.0417 125 51.0417C165.313 51.0417 197.917 83.6458 197.917 123.958V197.917H114.583V218.75H197.917C209.375 218.75 218.75 209.375 218.75 197.917V185.208C224.896 181.979 229.167 175.625 229.167 168.125V144.167C229.167 136.875 224.896 130.521 218.75 127.292Z" fill="white"/>
<path d="M93.75 145.833C99.503 145.833 104.167 141.17 104.167 135.417C104.167 129.664 99.503 125 93.75 125C87.9971 125 83.3334 129.664 83.3334 135.417C83.3334 141.17 87.9971 145.833 93.75 145.833Z" fill="white"/>
<path d="M156.25 145.833C162.003 145.833 166.667 141.17 166.667 135.417C166.667 129.664 162.003 125 156.25 125C150.497 125 145.833 129.664 145.833 135.417C145.833 141.17 150.497 145.833 156.25 145.833Z" fill="white"/>
<path d="M187.5 114.896C185.016 100.251 177.431 86.958 166.088 77.3686C154.745 67.7791 140.374 62.5122 125.521 62.5C93.9583 62.5 60 88.6458 62.7083 129.688C75.556 124.435 86.9033 116.083 95.737 105.377C104.571 94.6713 110.616 81.9446 113.333 68.3333C126.979 95.7292 155 114.583 187.5 114.896Z" fill="white"/>
</svg>
